<?xml version="1.0" standalone="no"?>
<!DOCTYPE svg PUBLIC "-//W3C//DTD SVG 20010904//EN"
 "http://www.w3.org/TR/2001/REC-SVG-20010904/DTD/svg10.dtd">
<svg version="1.0" xmlns="http://www.w3.org/2000/svg"
 width="880.000000pt" height="880.000000pt" viewBox="0 0 880.000000 880.000000"
 preserveAspectRatio="xMidYMid meet">
<metadata>
Created by potrace 1.11, written by Peter Selinger 2001-2013
</metadata>
<g transform="translate(0.000000,880.000000) scale(0.100000,-0.100000)"
fill="#000000" stroke="none">
<path d="M3550 8793 c-8 -3 -101 -57 -208 -120 -107 -62 -196 -113 -197 -113
-2 0 -49 -27 -104 -60 -56 -33 -106 -60 -111 -60 -6 0 -10 -4 -10 -8 0 -5 -16
-14 -35 -22 -19 -8 -35 -17 -35 -21 0 -3 -13 -12 -29 -19 -16 -6 -38 -20 -49
-30 -11 -11 -67 -46 -124 -80 -56 -33 -110 -65 -118 -70 -8 -6 -22 -13 -30
-17 -15 -7 -202 -115 -230 -133 -8 -5 -33 -19 -55 -31 -22 -12 -42 -24 -45
-28 -3 -3 -21 -14 -40 -25 -84 -45 -131 -80 -146 -109 -16 -28 -18 -76 -20
-412 -1 -209 -3 -390 -3 -402 -1 -17 -35 -41 -172 -120 -493 -284 -509 -293
-535 -333 l-25 -38 1 -453 c0 -250 0 -461 -1 -469 -1 -8 -3 -228 -5 -488 -4
-419 -2 -477 12 -504 20 -39 50 -69 89 -88 16 -8 69 -39 117 -67 47 -29 89
-53 93 -53 4 0 19 -8 33 -19 15 -10 47 -29 72 -43 103 -57 293 -168 305 -178
7 -6 10 -146 10 -397 -1 -222 3 -401 8 -418 19 -59 49 -85 194 -167 80 -46
167 -95 192 -111 25 -15 53 -30 61 -34 8 -3 22 -12 30 -19 8 -7 18 -13 23 -13
11 -1 198 -109 272 -158 35 -23 79 -49 97 -59 18 -9 35 -20 38 -23 3 -3 18
-13 35 -21 16 -8 58 -32 92 -52 35 -21 67 -38 73 -38 5 0 10 -4 10 -10 0 -5 6
-10 14 -10 8 0 16 -5 18 -11 2 -5 10 -11 18 -13 8 -1 35 -15 60 -30 24 -16 65
-40 90 -53 25 -13 72 -40 105 -60 160 -96 202 -109 252 -80 12 6 34 19 50 28
15 8 134 76 263 151 129 75 253 146 275 158 22 12 55 31 73 42 26 16 35 18 47
8 8 -7 15 -9 15 -5 0 5 8 1 18 -8 10 -9 49 -33 87 -53 39 -20 72 -40 75 -43 3
-4 16 -12 30 -19 14 -7 41 -22 60 -33 19 -12 53 -32 75 -44 22 -12 69 -39 105
-60 36 -20 81 -47 100 -58 94 -55 145 -77 174 -77 18 0 63 18 110 45 43 25 82
45 87 45 5 0 9 5 9 10 0 6 4 10 10 10 5 0 50 25 101 55 50 30 93 55 95 55 4 0
86 48 134 79 14 8 27 16 30 16 3 0 56 31 118 68 63 37 115 67 117 67 2 0 15
10 28 23 14 12 42 31 63 43 22 11 95 54 164 94 69 40 184 106 255 147 144 83
148 85 222 130 50 31 79 69 89 116 7 33 6 456 -1 467 -3 6 -3 10 2 10 7 0 9
93 2 110 -1 3 -1 8 -1 11 1 6 2 72 2 139 1 44 8 70 21 70 8 0 460 258 509 290
8 6 24 14 35 20 11 5 49 26 85 47 109 65 100 -33 100 1041 0 770 -3 939 -14
966 -22 53 -44 70 -206 159 -30 16 -62 36 -71 43 -8 8 -18 14 -22 14 -3 0 -30
14 -59 31 -29 18 -71 42 -93 55 -22 12 -92 52 -155 88 l-115 67 0 403 0 403
-26 39 c-19 29 -55 55 -140 104 -63 35 -120 70 -127 77 -7 7 -17 13 -22 13 -5
0 -43 20 -84 45 -42 25 -78 45 -80 45 -6 0 -281 162 -321 190 -22 15 -112 68
-200 119 -88 51 -167 97 -175 102 -70 42 -364 209 -370 209 -5 0 -10 6 -12 13
-6 16 -136 17 -146 1 -4 -7 -34 -26 -67 -43 -33 -18 -88 -49 -122 -71 -35 -21
-63 -36 -63 -33 0 3 -8 -1 -17 -9 -10 -8 -106 -65 -214 -127 l-196 -112 -87
51 c-48 27 -92 50 -97 50 -5 0 -9 5 -9 10 0 6 -5 10 -11 10 -10 0 -87 43 -159
89 -14 8 -27 16 -30 16 -3 0 -16 8 -30 16 -48 31 -215 126 -255 146 -40 20
-97 27 -125 16z m210 -403 c14 -9 50 -30 80 -47 30 -16 147 -83 259 -148 270
-158 255 -157 471 -30 85 50 162 94 170 98 8 4 38 21 65 37 28 17 57 34 65 37
8 4 17 9 20 12 3 3 21 15 40 25 19 10 68 38 109 62 l74 42 61 -37 c33 -21 81
-49 106 -63 25 -14 106 -61 180 -103 74 -43 158 -90 185 -105 l50 -29 2 -386
c0 -213 4 -401 7 -418 7 -39 40 -78 83 -101 65 -33 142 -13 189 50 l29 37 1
311 c2 250 4 310 15 308 7 -2 104 -56 215 -119 l202 -117 2 -43 c0 -24 1 -51
0 -60 0 -10 1 -38 1 -63 0 -25 1 -51 0 -57 0 -7 0 -38 0 -68 0 -60 0 -78 -2
-97 -1 -7 0 -29 1 -48 1 -33 2 -131 0 -167 0 -10 0 -31 0 -48 0 -23 -7 -33
-30 -45 -17 -8 -74 -40 -128 -71 -53 -32 -113 -66 -132 -77 -19 -11 -94 -54
-167 -96 l-132 -76 -73 43 c-40 24 -93 55 -118 69 -74 42 -106 60 -290 166
l-105 61 0 393 c-1 437 -2 443 -69 491 -44 31 -129 30 -174 -2 -67 -47 -66
-39 -67 -520 l0 -434 -60 -38 c-33 -21 -66 -38 -72 -38 -7 -1 -13 -5 -13 -10
0 -5 -8 -11 -17 -14 -19 -6 -93 -48 -161 -91 -23 -14 -46 -26 -52 -26 -5 0
-10 -4 -10 -10 0 -5 -4 -10 -9 -10 -14 0 -132 -70 -159 -94 -40 -35 -55 -74
-50 -132 4 -44 10 -59 37 -84 37 -36 70 -50 114 -50 26 0 292 144 545 295 59
36 109 59 122 56 8 -2 55 -27 105 -56 153 -90 199 -116 218 -122 9 -3 17 -9
17 -14 0 -5 5 -9 10 -9 6 0 46 -21 90 -46 l80 -47 0 -361 -1 -361 -121 -70
c-67 -38 -143 -82 -170 -96 -26 -14 -53 -31 -60 -36 -7 -6 -35 -23 -63 -38
-172 -92 -205 -127 -205 -217 0 -60 66 -125 136 -133 47 -6 48 -5 402 198
l254 146 51 -31 c175 -104 288 -168 297 -168 5 0 10 -3 10 -7 0 -5 10 -13 23
-19 12 -6 83 -46 157 -89 99 -58 146 -79 175 -81 41 -2 84 15 116 45 40 37 52
117 25 168 -19 38 -36 50 -218 153 -14 8 -134 77 -266 153 l-239 138 -1 349 0
350 61 36 c34 20 80 47 102 59 22 13 125 73 228 133 l189 111 46 -26 c26 -15
64 -37 84 -50 21 -12 39 -23 42 -23 2 0 65 -36 139 -80 75 -44 140 -80 145
-80 6 0 12 -3 14 -7 2 -5 25 -19 51 -33 27 -14 53 -30 58 -37 6 -7 10 -128 10
-303 0 -263 -4 -331 -18 -292 -3 6 -10 12 -18 12 -7 0 -18 7 -25 15 -7 8 -16
12 -21 9 -5 -3 -9 0 -9 5 0 6 -4 11 -9 11 -8 0 -151 80 -161 90 -3 3 -20 13
-38 22 -17 10 -47 26 -64 35 -18 10 -35 20 -38 24 -3 3 -31 19 -62 37 -74 41
-129 54 -162 37 -13 -7 -26 -11 -29 -9 -6 6 -43 -38 -64 -76 -14 -26 -17 -46
-13 -76 11 -75 33 -96 185 -179 39 -20 77 -44 86 -51 8 -8 18 -14 21 -14 4 0
44 -22 90 -49 94 -55 125 -73 261 -151 l96 -55 -2 -338 -2 -339 -165 -95 c-91
-53 -185 -106 -210 -120 -25 -13 -72 -40 -105 -59 -106 -61 -82 -66 -297 62
-106 62 -200 117 -208 121 -8 4 -62 34 -120 69 -174 102 -192 108 -266 90 -81
-19 -125 -136 -82 -217 19 -34 63 -68 158 -121 25 -14 61 -35 80 -46 19 -11
53 -31 75 -43 73 -41 80 -44 105 -60 14 -9 86 -51 160 -94 74 -43 137 -81 140
-86 6 -8 5 -668 -1 -673 -2 -2 -94 -56 -204 -119 -110 -63 -216 -124 -235
-136 -19 -11 -42 -24 -50 -28 -8 -3 -33 -18 -54 -31 -33 -21 -43 -23 -59 -12
-11 6 -36 21 -56 32 -20 11 -153 88 -296 171 -330 191 -328 190 -383 184 -115
-13 -172 -141 -107 -241 15 -23 54 -54 65 -52 3 0 19 -9 35 -20 17 -12 47 -31
68 -43 21 -12 98 -56 170 -98 73 -42 153 -88 180 -102 26 -13 47 -27 47 -30 0
-8 -159 -101 -171 -101 -5 0 -9 -4 -9 -10 0 -5 -4 -10 -9 -10 -5 0 -48 -22
-96 -50 -48 -28 -89 -50 -91 -50 -3 0 -21 -11 -40 -24 l-36 -24 -116 67 c-64
37 -128 74 -142 82 -14 8 -32 19 -40 26 -8 6 -19 13 -25 14 -5 1 -26 12 -45
24 -19 12 -62 37 -95 55 -61 34 -115 65 -150 87 -31 20 -82 41 -102 43 -83 9
-119 -7 -431 -191 -15 -9 -48 -27 -74 -42 -25 -14 -64 -37 -87 -51 -22 -14
-42 -26 -45 -26 -2 0 -36 -20 -76 -44 l-73 -44 -286 165 c-157 90 -290 168
-295 173 -5 5 -10 185 -10 417 -1 406 -1 408 -24 444 -22 37 -65 64 -113 72
-33 6 -95 -16 -125 -44 -42 -39 -46 -74 -46 -385 -1 -176 -5 -294 -10 -294 -5
0 -37 16 -71 36 -64 38 -102 60 -172 99 -22 13 -71 42 -110 64 l-70 41 0 336
0 337 35 22 c19 13 54 34 77 46 24 13 140 80 258 148 190 109 219 122 238 113
26 -14 80 -45 165 -95 35 -20 67 -37 73 -37 5 0 9 -4 9 -10 0 -5 4 -10 10 -10
8 0 136 -72 277 -156 21 -12 33 -27 34 -41 3 -66 2 -80 -4 -90 -4 -7 -4 -14 0
-16 5 -3 7 -29 5 -59 -4 -65 -4 -66 -1 -159 1 -41 -1 -81 -5 -87 -3 -6 -2 -13
3 -17 7 -3 7 -15 1 -29 -5 -13 -6 -26 -3 -29 8 -9 10 -66 2 -78 -4 -7 -3 -25
1 -40 5 -17 5 -29 0 -29 -5 0 -6 -8 -3 -17 4 -9 6 -42 6 -72 0 -59 16 -104 51
-135 69 -61 180 -45 228 33 23 36 23 40 28 475 l5 439 60 37 c33 20 80 48 105
62 135 75 367 213 384 227 32 28 54 83 50 129 -4 56 -29 95 -77 122 -67 38
-105 27 -317 -95 -374 -216 -407 -235 -417 -235 -6 0 -50 23 -99 52 -49 28
-107 61 -129 73 -22 12 -64 36 -93 54 -29 17 -57 31 -62 31 -6 0 -10 5 -10 10
0 6 -5 10 -11 10 -6 0 -37 15 -68 34 l-56 35 0 352 0 351 70 40 c113 65 138
80 170 99 17 10 50 30 75 44 25 14 68 38 95 55 28 16 64 37 80 45 17 8 48 29
68 46 117 96 62 266 -87 272 -41 2 -126 -29 -126 -45 0 -5 -9 -8 -19 -8 -11 0
-21 -4 -23 -9 -1 -4 -34 -25 -73 -46 -38 -21 -77 -44 -85 -51 -8 -7 -26 -17
-40 -23 -14 -6 -47 -24 -75 -40 -27 -16 -61 -36 -75 -44 -14 -7 -46 -26 -72
-40 -29 -17 -53 -24 -65 -20 -10 4 -94 51 -187 105 -93 54 -172 98 -177 98 -5
0 -9 5 -9 10 0 6 -4 10 -9 10 -6 0 -38 17 -73 37 -112 67 -122 72 -172 99 -58
31 -126 30 -169 -2 -29 -21 -67 -92 -67 -126 0 -45 40 -106 88 -135 26 -15 56
-33 67 -40 11 -7 29 -17 40 -22 26 -14 112 -63 214 -123 44 -27 85 -48 90 -48
5 0 11 -3 13 -7 3 -9 33 -27 128 -78 115 -63 103 -19 104 -392 1 -181 0 -338
-2 -349 -3 -14 -23 -33 -54 -50 -28 -16 -70 -40 -93 -54 -108 -63 -138 -80
-146 -80 -5 0 -9 -3 -9 -7 0 -5 -10 -13 -23 -19 -12 -5 -75 -41 -139 -78
l-118 -68 -67 40 c-38 22 -90 52 -118 67 -27 15 -55 32 -61 36 -6 5 -42 25
-80 45 -37 20 -74 43 -82 50 -7 8 -17 14 -22 14 -5 0 -42 20 -82 44 l-73 45 0
300 c0 225 3 301 12 301 6 0 13 -3 15 -7 3 -8 66 -44 115 -67 13 -6 23 -14 23
-18 0 -5 4 -8 9 -8 6 0 88 -46 183 -102 157 -92 178 -102 225 -102 100 -2 169
87 143 184 -13 50 -44 75 -200 165 -74 43 -151 87 -170 98 -35 20 -92 53 -140
80 -14 8 -65 37 -113 65 -49 29 -93 52 -98 52 -11 0 -11 -22 -12 361 l-2 325
290 166 290 166 60 -32 c33 -17 62 -34 63 -38 2 -5 8 -8 13 -8 5 0 39 -18 75
-40 36 -22 67 -40 69 -40 1 0 64 -36 140 -80 76 -44 139 -80 140 -80 2 0 30
-16 63 -35 32 -20 73 -40 90 -45 74 -21 166 41 181 120 7 38 4 52 -17 91 -13
26 -36 53 -50 60 -15 8 -103 58 -197 113 -93 54 -189 109 -211 122 -23 13 -90
52 -150 87 l-109 63 0 340 0 339 23 10 c12 5 22 13 22 17 0 5 4 8 9 8 5 0 49
23 98 51 48 28 104 61 123 72 155 89 236 135 270 155 l39 23 133 -77 c194
-112 199 -115 243 -139 22 -13 81 -47 130 -76 196 -115 208 -119 271 -104 107
24 148 169 71 250 -18 19 -140 96 -272 171 -132 76 -250 145 -262 155 l-23 17
28 13 c15 8 78 43 140 79 62 36 136 78 165 94 29 16 68 39 87 51 l35 23 65
-36 c36 -19 76 -43 90 -52z"/>
<path d="M2825 7421 c-72 -17 -113 -64 -121 -136 -8 -65 24 -117 99 -161 32
-19 62 -34 68 -34 5 0 9 -4 9 -8 0 -4 12 -13 28 -19 15 -7 45 -23 67 -38 22
-14 54 -32 70 -40 17 -9 68 -38 114 -65 46 -28 88 -50 92 -50 5 0 9 -4 9 -10
0 -5 4 -10 9 -10 5 0 43 -20 85 -45 149 -88 204 -115 235 -115 30 0 63 14 136
59 31 19 219 128 533 309 192 110 209 126 215 194 7 74 -37 138 -109 158 -59
17 -85 10 -190 -51 -49 -28 -109 -63 -134 -77 -25 -13 -70 -39 -100 -57 -30
-18 -86 -50 -125 -73 -38 -22 -106 -61 -149 -86 l-80 -45 -30 18 c-60 37 -257
151 -261 151 -1 0 -59 33 -126 73 -159 94 -269 153 -294 160 -11 2 -33 2 -50
-2z"/>
<path d="M4530 5901 c-30 -17 -61 -33 -69 -37 -16 -8 -330 -190 -351 -204 -31
-19 -166 -95 -181 -101 -38 -16 -79 -103 -72 -155 13 -112 144 -166 240 -102
21 14 90 55 153 90 63 36 156 89 205 118 50 29 115 66 145 83 30 17 57 33 60
36 3 3 18 13 34 21 44 23 75 78 72 131 -4 82 -53 135 -133 144 -40 5 -57 1
-103 -24z"/>
<path d="M5045 4497 c-16 -7 -61 -31 -100 -53 -38 -23 -88 -52 -110 -64 -22
-12 -60 -34 -85 -50 -25 -16 -51 -29 -57 -29 -7 -1 -13 -5 -13 -11 0 -5 -4
-10 -8 -10 -9 0 -152 -80 -174 -97 -7 -6 -42 -25 -78 -44 -36 -19 -69 -37 -75
-42 -5 -4 -26 -18 -45 -30 -52 -34 -80 -82 -80 -136 0 -127 132 -186 250 -113
28 18 53 32 55 32 2 0 38 20 79 45 42 25 81 45 85 45 5 0 11 3 13 8 4 9 235
142 247 142 5 0 11 3 13 8 4 8 45 34 104 64 l41 20 219 -127 c336 -197 395
-230 449 -258 51 -25 51 -25 102 -8 53 18 70 30 95 71 32 54 15 143 -36 180
-35 26 -319 190 -328 190 -4 0 -8 5 -8 10 0 6 -5 10 -11 10 -6 0 -71 36 -146
80 -74 44 -137 80 -138 80 -2 0 -39 22 -82 48 -83 51 -125 60 -178 39z"/>
<path d="M5077 904 c-1 -1 -16 -4 -34 -7 -163 -26 -258 -126 -255 -272 3 -125
95 -205 349 -301 40 -15 81 -36 92 -48 29 -31 18 -61 -28 -75 -78 -23 -150 -6
-199 47 -29 31 -32 32 -114 32 -103 0 -113 -6 -103 -56 20 -111 122 -190 270
-210 113 -15 211 -2 305 39 41 18 105 91 118 134 49 165 -53 293 -302 377 -70
24 -146 57 -147 65 0 3 -2 14 -4 23 -6 34 20 51 82 56 73 5 115 -14 145 -64
l20 -34 93 0 c101 0 115 7 108 52 -19 136 -161 238 -336 242 -32 1 -59 1 -60
0z"/>
<path d="M653 884 c-10 -4 -13 -100 -13 -429 0 -328 3 -426 13 -432 6 -4 124
-8 262 -8 212 -1 258 2 303 17 71 23 107 50 139 106 23 38 27 58 27 112 0 36
-2 75 -4 88 -5 25 -59 87 -100 114 l-25 16 33 31 c75 69 86 194 25 283 -27 40
-87 84 -130 94 -33 9 -513 15 -530 8z m452 -218 c22 -14 26 -24 23 -54 -4 -53
-30 -63 -158 -60 l-105 3 -3 62 c-3 72 -10 69 130 67 64 -1 94 -5 113 -18z
m34 -310 c25 -23 31 -57 15 -95 -16 -39 -33 -42 -174 -39 l-115 3 -3 72 c-3
85 -14 79 145 78 92 -1 116 -5 132 -19z"/>
<path d="M1563 879 c-10 -10 -13 -110 -13 -431 0 -387 1 -418 18 -426 17 -9
189 -9 198 0 2 3 6 54 7 114 l2 109 50 2 c28 2 57 -2 66 -10 8 -6 43 -53 76
-102 33 -50 67 -96 74 -102 18 -14 259 -15 259 0 0 16 -41 77 -51 77 -6 0 -8
4 -5 9 4 5 3 11 -1 13 -10 4 -73 85 -73 93 0 4 -7 13 -15 21 -24 24 -18 41 23
70 144 103 163 354 38 486 -14 14 -51 39 -83 55 l-58 28 -250 3 c-192 3 -253
0 -262 -9z m464 -214 c43 -28 50 -44 49 -101 -1 -45 -6 -56 -31 -78 -33 -29
-29 -28 -168 -30 -56 0 -102 3 -106 9 -13 17 -7 205 6 213 7 5 60 7 118 6 82
-1 110 -5 132 -19z"/>
<path d="M2737 875 c-25 -12 -26 -16 -77 -145 -23 -58 -45 -114 -49 -125 -5
-11 -18 -43 -30 -72 -12 -28 -26 -64 -33 -80 -6 -15 -12 -30 -13 -33 -5 -15
-18 -47 -26 -65 -42 -96 -128 -328 -125 -334 7 -10 205 -7 229 4 9 4 17 13 17
21 0 21 2 27 20 59 l17 30 149 3 c82 1 158 0 169 -2 14 -4 25 -20 34 -50 20
-68 31 -73 148 -72 56 1 105 4 109 8 6 7 -1 32 -32 103 -13 30 -81 205 -176
450 -27 72 -56 144 -63 160 -7 17 -21 51 -30 77 -10 26 -24 53 -31 59 -18 15
-181 18 -207 4z m136 -385 c48 -131 50 -137 35 -142 -11 -3 -76 -3 -147 1 -27
1 -28 -4 23 129 36 95 46 116 51 110 2 -2 19 -46 38 -98z"/>
<path d="M3423 882 c-9 -5 -12 -117 -12 -430 0 -387 1 -423 17 -430 14 -7 108
-9 187 -3 19 1 26 17 26 56 0 17 -1 201 -1 253 -1 64 -1 131 0 180 1 56 0 99
-1 135 -1 12 0 33 1 47 1 14 1 50 0 80 -1 30 0 60 1 65 2 6 -2 20 -9 33 -12
20 -20 22 -105 22 -51 0 -97 -4 -104 -8z"/>
<path d="M3833 878 c-10 -17 -12 -833 -2 -850 11 -17 196 -19 210 -2 6 8 10
99 10 239 1 195 3 225 15 214 8 -6 74 -86 147 -178 72 -91 144 -179 160 -196
15 -16 35 -42 45 -57 9 -16 23 -29 32 -29 76 -7 153 -4 167 6 14 11 16 55 15
430 0 340 -2 419 -13 426 -23 14 -197 11 -206 -3 -4 -7 -8 -111 -8 -230 -1
-192 -8 -261 -22 -220 -3 7 -11 19 -19 26 -8 8 -71 86 -141 173 -149 186 -134
167 -179 221 l-36 42 -84 0 c-55 0 -86 -4 -91 -12z"/>
<path d="M5603 878 c-10 -18 -11 -169 -1 -190 7 -15 27 -18 136 -20 l127 -3 1
-319 c1 -226 5 -320 13 -325 18 -12 201 -6 209 6 4 6 7 150 7 320 -1 201 3
311 10 315 5 4 62 8 126 8 81 0 120 4 126 13 13 16 14 166 2 189 -9 17 -36 18
-379 18 -283 0 -371 -3 -377 -12z"/>
<path d="M6502 878 c-6 -9 -10 -161 -10 -431 0 -380 1 -418 16 -425 20 -10
637 -10 647 -1 3 4 6 48 7 100 0 71 -3 95 -15 103 -9 8 -84 11 -216 11 -223
-1 -211 -5 -208 70 l2 40 173 0 c141 1 175 3 182 15 10 15 12 139 3 173 -4 15
-21 17 -178 17 -148 0 -174 2 -179 16 -9 22 -7 104 2 105 4 1 100 3 213 4 113
1 210 5 216 8 14 9 15 178 1 195 -8 9 -86 12 -328 12 -242 0 -320 -3 -328 -12z"/>
<path d="M7343 884 c-18 -8 -19 -849 -1 -860 7 -4 54 -8 106 -9 76 -1 95 1
101 14 5 9 9 57 9 107 0 51 3 97 6 103 8 12 95 15 111 3 15 -11 55 -70 55 -82
0 -5 3 -10 8 -10 4 0 24 -27 45 -60 21 -32 46 -61 55 -64 30 -8 242 -3 242 6
0 9 -29 59 -40 68 -3 3 -17 21 -30 40 -13 19 -27 37 -30 40 -3 3 -20 26 -37
52 l-33 46 33 27 c62 51 75 65 103 122 26 50 29 67 29 147 -1 71 -5 101 -22
138 -30 65 -77 114 -142 146 l-56 27 -250 2 c-137 1 -256 0 -262 -3z m472
-218 c67 -44 66 -149 -1 -193 -19 -12 -50 -17 -122 -18 -153 -2 -142 -10 -142
109 0 59 5 107 11 113 17 17 225 8 254 -11z"/>
</g>
</svg>
