<svg width="47" height="55" viewBox="0 0 47 55" fill="none" xmlns="http://www.w3.org/2000/svg">
<g clip-path="url(#clip0)">
<path d="M3.9056 52.1512C3.85965 52.1053 3.85965 52.0593 3.9056 52.0134C4.22723 51.7836 4.45698 51.4161 4.45698 50.9566C4.45698 50.0836 3.85965 49.4403 2.71094 49.4403H0.183793C0.0918964 49.4403 0 49.5322 0 49.6241V54.7243C0 54.8162 0.0918964 54.9081 0.183793 54.9081H2.94069C4.04344 54.9081 4.68672 54.2648 4.68672 53.3918C4.68672 52.7485 4.41103 52.381 3.9056 52.1512ZM1.37845 50.8647C1.37845 50.7728 1.42439 50.7268 1.51629 50.7268H2.61905C2.89474 50.7268 3.07853 50.9106 3.07853 51.1404C3.07853 51.4161 2.94068 51.5539 2.5731 51.5539H1.51629C1.42439 51.5539 1.37845 51.5079 1.37845 51.4161V50.8647ZM2.80284 53.6216H1.51629C1.42439 53.6216 1.37845 53.5756 1.37845 53.4837V52.7945C1.37845 52.7026 1.42439 52.6567 1.51629 52.6567H2.75689C3.12448 52.6567 3.26232 52.8404 3.26232 53.1161C3.30827 53.4378 3.17043 53.6216 2.80284 53.6216Z" fill="#302F38"/>
<path d="M9.37361 53.3459C9.32766 53.2999 9.32766 53.208 9.41956 53.1621C10.0628 52.7945 10.3845 52.1512 10.3845 51.4161C10.3845 50.3592 9.7412 49.4403 8.36275 49.4403H5.88155C5.78965 49.4403 5.69775 49.5322 5.69775 49.6241V54.7243C5.69775 54.8162 5.78965 54.9081 5.88155 54.9081H6.89241C6.9843 54.9081 7.0762 54.8162 7.0762 54.7243V53.5756C7.0762 53.4837 7.12215 53.4378 7.21404 53.4378H7.62758C7.71947 53.4378 7.81137 53.4837 7.85732 53.5297L8.68439 54.7243C8.73033 54.8162 8.82223 54.8622 8.96008 54.8622H10.2926C10.3845 54.8622 10.3845 54.7703 10.3845 54.7243L9.37361 53.3459ZM8.2249 52.1512H7.1681C7.0762 52.1512 7.03025 52.1053 7.03025 52.0134V50.8647C7.03025 50.7728 7.0762 50.7268 7.1681 50.7268H8.2249C8.77628 50.7268 9.00602 51.0485 9.00602 51.462C9.00602 51.8296 8.77628 52.1512 8.2249 52.1512Z" fill="#302F38"/>
<path d="M14.4736 49.6241C14.4276 49.5322 14.3357 49.4863 14.2438 49.4863H13.187C13.0951 49.4863 13.0032 49.5322 12.9573 49.6241L10.8896 54.7703C10.8437 54.8622 10.8896 54.9082 10.9815 54.9082H12.1762C12.2681 54.9082 12.36 54.8622 12.4059 54.7703L12.5897 54.2649C12.6356 54.173 12.6816 54.1271 12.7735 54.1271H14.6114C14.7033 54.1271 14.7493 54.173 14.7952 54.2649L14.979 54.7703C15.0249 54.8622 15.1168 54.9082 15.2087 54.9082H16.4034C16.4953 54.9082 16.5412 54.8163 16.4953 54.7703L14.4736 49.6241ZM14.1519 52.8405H13.233C13.1411 52.8405 13.1411 52.7486 13.1411 52.7027L13.6465 51.3702C13.6465 51.3242 13.7384 51.3242 13.7384 51.3702L14.2438 52.7027C14.2898 52.7486 14.2438 52.8405 14.1519 52.8405Z" fill="#302F38"/>
<path d="M18.5634 49.4403H17.5065C17.4146 49.4403 17.3228 49.5322 17.3228 49.6241V54.7243C17.3228 54.8162 17.4146 54.9081 17.5065 54.9081H18.5634C18.6553 54.9081 18.7471 54.8162 18.7471 54.7243V49.6241C18.7471 49.5322 18.6553 49.4403 18.5634 49.4403Z" fill="#302F38"/>
<path d="M24.766 49.4403H23.7092C23.6173 49.4403 23.5254 49.5322 23.5254 49.6241V52.335C23.5254 52.381 23.4795 52.4269 23.4335 52.381L21.1821 49.5781C21.1361 49.4862 20.9983 49.4403 20.9064 49.4403H20.0793C19.9874 49.4403 19.8955 49.5322 19.8955 49.6241V54.7243C19.8955 54.8162 19.9874 54.9081 20.0793 54.9081H21.1361C21.228 54.9081 21.3199 54.8162 21.3199 54.7243V52.0134C21.3199 51.9674 21.3658 51.9215 21.4118 51.9674L23.6633 54.7703C23.7092 54.8622 23.8471 54.9081 23.9389 54.9081H24.766C24.8579 54.9081 24.9498 54.8162 24.9498 54.7243V49.6241C24.9039 49.5322 24.8579 49.4403 24.766 49.4403Z" fill="#302F38"/>
<path d="M28.3039 51.4619C27.6606 51.2322 27.3849 51.1403 27.3849 50.9105C27.3849 50.7267 27.5687 50.5429 28.0282 50.5429C28.4877 50.5429 28.7634 50.7727 28.8553 51.0024C28.9012 51.1403 28.9472 51.1862 29.085 51.1862H30.0499C30.1418 51.1862 30.2337 51.0943 30.2337 51.0024C30.1418 50.0375 29.2688 49.3483 28.0282 49.3483C26.7876 49.3483 25.9146 49.9916 25.9146 51.0484C25.9146 52.1511 27.0633 52.5647 27.8904 52.8863C28.5336 53.116 28.8093 53.2539 28.8093 53.4836C28.8093 53.6215 28.6255 53.8053 28.1201 53.8053C27.6147 53.8053 27.339 53.6215 27.2471 53.4377C27.1552 53.2998 27.1093 53.2539 26.9714 53.2539H26.0524C25.9605 53.2539 25.8687 53.3458 25.8687 53.4377C25.9605 54.4485 26.9255 54.954 28.1661 54.954C29.4067 54.954 30.3256 54.4026 30.3256 53.3458C30.3256 52.1971 29.085 51.7376 28.3039 51.4619Z" fill="#302F38"/>
<path d="M35.61 49.4403H31.153C31.0611 49.4403 30.9692 49.5322 30.9692 49.6241V50.6349C30.9692 50.7268 31.0611 50.8187 31.153 50.8187H32.5315C32.6234 50.8187 32.6693 50.8647 32.6693 50.9566V54.7243C32.6693 54.8162 32.7612 54.9081 32.8531 54.9081H33.9099C34.0018 54.9081 34.0937 54.8162 34.0937 54.7243V50.9566C34.0937 50.8647 34.1397 50.8187 34.2316 50.8187H35.61C35.7019 50.8187 35.7938 50.7268 35.7938 50.6349V49.6241C35.7479 49.5322 35.7019 49.4403 35.61 49.4403Z" fill="#302F38"/>
<path d="M40.6181 49.4403H36.7585C36.6666 49.4403 36.5747 49.5322 36.5747 49.6241V54.7243C36.5747 54.8162 36.6666 54.9081 36.7585 54.9081H40.5722C40.6641 54.9081 40.756 54.8162 40.756 54.7243V53.7135C40.756 53.6216 40.6641 53.5297 40.5722 53.5297H38.1369C38.045 53.5297 37.9991 53.4837 37.9991 53.3918V52.9783C37.9991 52.8864 38.045 52.8404 38.1369 52.8404H40.1127C40.2046 52.8404 40.2965 52.7485 40.2965 52.6567V51.7377C40.2965 51.6458 40.2046 51.5539 40.1127 51.5539H38.1369C38.045 51.5539 37.9991 51.5079 37.9991 51.4161V50.9106C37.9991 50.8187 38.045 50.7728 38.1369 50.7728H40.6181C40.71 50.7728 40.8019 50.6809 40.8019 50.589V49.6241C40.756 49.5322 40.71 49.4403 40.6181 49.4403Z" fill="#302F38"/>
<path d="M46.4997 54.7243L45.4888 53.3459C45.4429 53.2999 45.4429 53.208 45.5348 53.1621C46.1781 52.7945 46.4997 52.1512 46.4997 51.4161C46.4997 50.3592 45.8564 49.4403 44.478 49.4403H41.9968C41.9049 49.4403 41.813 49.5322 41.813 49.6241V54.7243C41.813 54.8162 41.9049 54.9081 41.9968 54.9081H43.0536C43.1455 54.9081 43.2374 54.8162 43.2374 54.7243V53.5756C43.2374 53.4837 43.2833 53.4378 43.3752 53.4378H43.7888C43.8807 53.4378 43.9725 53.4837 44.0185 53.5297L44.8456 54.7243C44.8915 54.8162 44.9834 54.8622 45.1212 54.8622H46.4537C46.4997 54.8622 46.5456 54.8162 46.4997 54.7243ZM44.3861 52.1512H43.3293C43.2374 52.1512 43.1914 52.1053 43.1914 52.0134V50.8647C43.1914 50.7728 43.2374 50.7268 43.3293 50.7268H44.3861C44.9375 50.7268 45.1672 51.0485 45.1672 51.462C45.1213 51.8296 44.9375 52.1512 44.3861 52.1512Z" fill="#302F38"/>
<path d="M27.4309 26.9257L22.8361 29.5907C22.3766 29.8663 22.2388 30.4177 22.4685 30.8772C22.6983 31.3367 23.3415 31.4745 23.7551 31.2448L27.8904 28.8555L32.0257 31.2448C32.1636 31.3367 32.3474 31.3826 32.4852 31.3826C32.8069 31.3826 33.1285 31.1988 33.3123 30.9232C33.588 30.4637 33.4042 29.8663 32.9447 29.6366L28.3499 26.9716C28.1201 26.7419 27.7066 26.7878 27.4309 26.9257Z" fill="#302F38"/>
<path d="M42.6859 25.6391V20.3091C42.6859 20.2172 42.6399 20.0794 42.6399 19.9875C42.6859 19.8956 42.6859 19.7577 42.6859 19.6658V14.3358C42.6859 14.0142 42.5021 13.6926 42.2264 13.5088L38.091 11.1195V6.34085C38.091 6.01922 37.9072 5.69758 37.6316 5.51378L33.2205 2.98663C33.1746 2.94069 33.0827 2.84879 32.9908 2.80284L28.396 0.137845C28.1203 -0.0459482 27.7527 -0.0459482 27.4311 0.137845L23.2038 2.5731L18.9766 0.137845C18.7009 -0.0459482 18.3333 -0.0459482 18.0117 0.137845L13.4169 2.80284C13.325 2.84879 13.2331 2.94069 13.1412 3.03258L8.73013 5.60568C8.45444 5.78947 8.27065 6.11111 8.27065 6.43275V11.1654L4.13531 13.5547C3.85962 13.7385 3.67583 14.0602 3.67583 14.3818V19.7118C3.67583 19.8037 3.72178 19.9415 3.72178 20.0334C3.67583 20.1253 3.62988 20.2172 3.62988 20.3551V25.685C3.62988 26.0067 3.81368 26.3283 4.08936 26.5121L8.2247 28.9014V33.726C8.2247 34.0476 8.4085 34.3693 8.68419 34.553L13.0952 37.0802C13.1412 37.1261 13.2331 37.218 13.325 37.264L17.9198 39.929C18.0576 40.0209 18.2414 40.0668 18.3793 40.0668C18.563 40.0668 18.7009 40.0209 18.8387 39.929L23.066 37.4937L27.2932 39.929C27.4311 40.0209 27.6148 40.0668 27.7527 40.0668C27.9365 40.0668 28.0743 40.0209 28.2122 39.929L32.807 37.264C32.8989 37.218 32.9908 37.1261 33.0827 37.0343L37.5397 34.4612C37.8153 34.2774 37.9991 33.9557 37.9991 33.6341V28.8555L42.1345 26.4662C42.5021 26.3283 42.6859 26.0067 42.6859 25.6391ZM32.9908 24.7661C32.5313 24.5363 31.934 24.6742 31.7042 25.1337C31.5664 25.3634 31.5664 25.5931 31.6123 25.8688C31.6583 26.0986 31.8421 26.3283 32.0718 26.4662L36.2072 28.8555V33.0827L32.5313 35.1963L28.396 32.807C27.9365 32.5313 27.3392 32.7151 27.1094 33.1746C26.9716 33.4043 26.9256 33.6341 27.0175 33.9098C27.0635 34.1395 27.2473 34.3693 27.477 34.5071L30.7393 36.391L27.8446 38.0451L23.7092 35.6558C23.5255 35.5639 23.3417 35.518 23.1579 35.5639C22.9741 35.5639 22.7903 35.5639 22.6065 35.6558L18.4712 38.0451L14.7953 35.9315V31.061C14.7953 30.5556 14.3818 30.0961 13.8304 30.0961C13.325 30.0961 12.8655 30.5096 12.8655 31.061V34.6909L10.1545 33.1287V28.9014L13.8304 26.7878L17.5062 28.9014V33.68C17.5062 34.1855 17.9198 34.6449 18.4712 34.6449C18.9766 34.6449 19.4361 34.2314 19.4361 33.68V28.4879L22.7443 26.5581C22.9741 26.4202 23.1119 26.2364 23.2038 25.9607C23.2498 25.731 23.2498 25.4553 23.1119 25.2256C22.8822 24.7661 22.2389 24.6282 21.8254 24.858L18.1495 26.9716L14.8412 25.0877V20.6767L18.2414 18.7009C18.4712 18.5631 18.609 18.3793 18.7009 18.1036C18.7468 17.8739 18.7468 17.5982 18.609 17.3684C18.3793 16.9549 17.736 16.7711 17.3224 17.0008L13.7844 19.0226L9.74099 16.6792C9.28151 16.4035 8.68419 16.5873 8.45444 17.0468C8.17876 17.5063 8.36255 18.1036 8.82203 18.3333L12.9574 20.7226V25.0877L9.32746 27.2013L5.6516 25.0877V21.274L8.82203 23.1119C8.95988 23.2038 9.14367 23.2498 9.28151 23.2498C9.60315 23.2498 9.92479 23.066 10.1086 22.7903C10.3843 22.3308 10.2005 21.7335 9.74099 21.5038L5.60566 19.1145V14.8872L9.23556 12.8195L13.4169 15.2089C13.5547 15.3008 13.7385 15.3467 13.8763 15.3467C14.198 15.3467 14.5196 15.1629 14.7034 14.8872C14.9791 14.4277 14.7953 13.8304 14.3358 13.6007L10.2005 11.2114V6.98413L13.8763 4.87051L18.0117 7.25982C18.4712 7.53551 19.0685 7.35171 19.2982 6.89223C19.4361 6.66249 19.482 6.43275 19.3901 6.15706C19.3442 5.92732 19.1604 5.69758 18.9306 5.55973L15.6683 3.67586L18.5631 2.02172L22.6984 4.41103C22.8362 4.50292 23.02 4.54887 23.1579 4.54887C23.2038 4.54887 23.2038 4.54887 23.2498 4.54887C23.4336 4.54887 23.6174 4.54887 23.8011 4.41103L27.9365 2.02172L31.6123 4.13534V8.91395C31.6123 9.41938 32.0259 9.87886 32.5773 9.87886C33.0827 9.87886 33.5422 9.46533 33.5422 8.91395V5.28404L36.2531 6.84628V11.0735L32.5773 13.1871L28.9014 11.0735V6.34085C28.9014 5.83542 28.4879 5.37594 27.9365 5.37594C27.4311 5.37594 26.9716 5.78947 26.9716 6.34085V11.533L23.6633 13.4628C23.4336 13.6007 23.2957 13.7845 23.2038 14.0602C23.1579 14.2899 23.1579 14.5656 23.2957 14.7953C23.4795 15.071 23.8011 15.2548 24.1228 15.2548C24.3066 15.2548 24.4444 15.2089 24.5823 15.117L28.2581 13.0033L31.5664 14.8872V19.3901L28.1662 21.3659C27.7067 21.6416 27.5689 22.193 27.7986 22.6525C27.9824 22.9282 28.3041 23.1119 28.6257 23.1119C28.8095 23.1119 28.9473 23.066 29.0852 22.9741L32.6232 20.9524L36.6666 23.2957C36.8045 23.3876 36.9883 23.4336 37.1261 23.4336C37.4478 23.4336 37.7694 23.2498 37.9532 22.9741C38.2289 22.5146 38.0451 21.9173 37.5856 21.6876L33.4503 19.2982V14.9332L37.0802 12.8195L40.756 14.9332V18.7009L37.5856 16.863C37.1261 16.5873 36.5288 16.7711 36.2991 17.2306C36.0234 17.6901 36.2072 18.2874 36.6666 18.5171L40.802 20.9064V25.1337L37.1721 27.2013L32.9908 24.7661Z" fill="#302F38"/>
<path d="M25.7768 19.1604C25.8227 18.9306 25.8227 18.6549 25.6849 18.4252C25.4551 17.9657 24.8118 17.8279 24.3983 18.0576L20.5846 20.2631C20.3549 20.401 20.217 20.5848 20.1251 20.8605C20.0792 21.0902 20.0792 21.3659 20.217 21.5956C20.4008 21.8713 20.7225 22.0551 21.0441 22.0551C21.2279 22.0551 21.3657 22.0092 21.5036 21.9173L25.3173 19.7118C25.547 19.5739 25.6849 19.3901 25.7768 19.1604Z" fill="#302F38"/>
<path d="M23.9392 9.83284C23.9852 9.6031 23.9852 9.32741 23.8473 9.09767C23.6176 8.68414 22.9743 8.50035 22.5608 8.73009L18.4254 11.1194L14.2901 8.73009C13.8306 8.4544 13.2333 8.63819 13.0036 9.09767C12.7279 9.55715 12.9117 10.1545 13.3711 10.3842L17.966 13.0492C18.1038 13.1411 18.2876 13.1871 18.4254 13.1871C18.6092 13.1871 18.7471 13.1411 18.8849 13.0492L23.4797 10.3842C23.7554 10.2923 23.8933 10.0626 23.9392 9.83284Z" fill="#302F38"/>
</g>
<defs>
<clipPath id="clip0">
<rect width="46.4996" height="55" fill="white"/>
</clipPath>
</defs>
</svg>
